# xmcd
#
# Track frame offsets:
#	150
#	15210
#	30314
#	42465
#	66191
#	83259
#	107048
#	125900
#	143357
#	164133
#
# Disc length: 2345 seconds
#
# Revision: 1
# Processed by: cddbd v1.5.2PL0 Copyright (c) Steve Scherf et al.
# Submitted via: audiograbber 1.83.01
#
DISCID=7709270a
DTITLE=Boobe Seymour - Live
DYEAR=1971
DGENRE=Country
TTITLE0=Waltz Across Texas
TTITLE1=He Stopped Loving Her Today
TTITLE2=Precious Jewel
TTITLE3=Kentucky
TTITLE4=Silver Wings
TTITLE5=Blue Eyes Crying In The Rain
TTITLE6=Legend In My Time
TTITLE7=Maiden's Prayer
TTITLE8=Cold, Cold Heart
TTITLE9=Oh, Lonseome Me
EXTD=
EXTT0=
EXTT1=
EXTT2=
EXTT3=
EXTT4=
EXTT5=
EXTT6=
EXTT7=
EXTT8=
EXTT9=
PLAYORDER=
